<?xml version="1.0" encoding="UTF-8" standalone="no"?>
<!-- Created with Inkscape (http://www.inkscape.org/) -->

<svg
   xmlns:dc="http://purl.org/dc/elements/1.1/"
   xmlns:cc="http://creativecommons.org/ns#"
   xmlns:rdf="http://www.w3.org/1999/02/22-rdf-syntax-ns#"
   xmlns:svg="http://www.w3.org/2000/svg"
   xmlns="http://www.w3.org/2000/svg"
   xmlns:sodipodi="http://sodipodi.sourceforge.net/DTD/sodipodi-0.dtd"
   xmlns:inkscape="http://www.inkscape.org/namespaces/inkscape"
   width="286.78052"
   height="136.83139"
   id="svg2"
   version="1.1"
   inkscape:version="0.48.4 r9939"
   sodipodi:docname="logo.svg"
   inkscape:export-filename="/home/matthew/yarble-madness/logo-big.png"
   inkscape:export-xdpi="204.21001"
   inkscape:export-ydpi="204.21001">
  <defs
     id="defs4" />
  <sodipodi:namedview
     id="base"
     pagecolor="#ffffff"
     bordercolor="#666666"
     borderopacity="1.0"
     inkscape:pageopacity="0.0"
     inkscape:pageshadow="2"
     inkscape:zoom="0.49497475"
     inkscape:cx="483.16058"
     inkscape:cy="-106.27471"
     inkscape:document-units="px"
     inkscape:current-layer="layer1"
     showgrid="false"
     fit-margin-top="0"
     fit-margin-left="0"
     fit-margin-right="0"
     fit-margin-bottom="0"
     inkscape:window-width="840"
     inkscape:window-height="669"
     inkscape:window-x="603"
     inkscape:window-y="88"
     inkscape:window-maximized="0" />
  <metadata
     id="metadata7">
    <rdf:RDF>
      <cc:Work
         rdf:about="">
        <dc:format>image/svg+xml</dc:format>
        <dc:type
           rdf:resource="http://purl.org/dc/dcmitype/StillImage" />
        <dc:title></dc:title>
      </cc:Work>
    </rdf:RDF>
  </metadata>
  <g
     inkscape:label="Layer 1"
     inkscape:groupmode="layer"
     id="layer1"
     transform="translate(-104.96684,-300.6095)">
    <g
       transform="matrix(2.2746106,-0.14999345,0.14999345,2.2746106,-98.986645,-120.59251)"
       style="font-size:40px;font-style:normal;font-weight:normal;line-height:125%;letter-spacing:0px;word-spacing:0px;fill:#ffffff;fill-opacity:1;stroke:none;font-family:Sans"
       id="flowRoot2985">
      <path
         d="m 87.203125,213.6254 c -0.520849,1.75783 -1.569025,5.76173 -3.144531,12.01172 l -0.214844,0.0586 c -1.744803,0.32553 -4.140634,0.91146 -7.1875,1.75782 0.182286,-0.71615 0.970045,-3.20313 2.363281,-7.46094 l 2.050781,-6.36719 c -0.416676,-1.35415 -0.846363,-3.29425 -1.289062,-5.82031 -0.585946,-3.33331 -0.944019,-5.29946 -1.074219,-5.89844 -0.35157,-1.58851 -0.742194,-2.80596 -1.171875,-3.65234 l 6.054688,0 c 0.247382,0.80732 0.507799,2.1745 0.78125,4.10156 l 0.9375,6.13281 c 0.429672,-0.71612 1.712223,-2.78643 3.847656,-6.21093 1.24998,-2.01821 2.285136,-3.38539 3.105469,-4.10157 l 6.484375,-0.89843 c -1.419298,1.32815 -4.056014,4.9219 -7.910157,10.78125 -1.58856,2.39585 -2.799496,4.25131 -3.632812,5.5664"
         style="font-variant:normal;font-stretch:normal;font-family:Adventure;-inkscape-font-specification:Adventure;fill:#ffffff"
         id="path3044" />
      <path
         d="m 107.16406,202.434 c -0.53387,0.75523 -1.65366,2.56512 -3.35937,5.42968 l -1.40625,2.38282 3.18359,-0.0586 0.72266,0.56641 c 0.59894,-1.31509 0.89842,-3.73045 0.89844,-7.2461 -2e-5,-0.53383 -0.013,-0.8919 -0.0391,-1.07421 m -1.60156,11.26953 -4.74609,0.23437 c -0.976574,1.54949 -1.8685,3.56772 -2.675785,6.05469 l -5.917969,1.46484 c 0.169271,-0.65103 0.937499,-2.36327 2.304688,-5.13672 l 1.425781,-2.89062 c 1.341141,-2.72134 3.450514,-6.08071 6.328125,-10.07813 1.57551,-2.20049 3.1315,-4.15361 4.66797,-5.85937 0.91144,-0.026 2.2591,-0.0846 4.04297,-0.17578 l 0.13672,1.99219 c 0.0911,1.51044 0.1367,2.96226 0.13672,4.35546 -2e-5,2.74742 -0.20185,5.2995 -0.60547,7.65625 -0.14325,0.40367 -0.45575,2.10288 -0.9375,5.09766 -0.19533,1.23699 -0.39716,2.2461 -0.60547,3.02734 l -5.91797,1.44532 c 0.41665,-1.34114 1.20441,-3.73697 2.36328,-7.1875"
         style="font-variant:normal;font-stretch:normal;font-family:Adventure;-inkscape-font-specification:Adventure;fill:#ffffff"
         id="path3046" />
      <path
         d="m 132.65234,204.44571 c -0.65106,3.47659 -2.87762,5.65757 -6.67968,6.54297 2.43487,2.65627 4.45961,5.32553 6.07421,8.00782 l -5.39062,1.95312 c -1.54949,-3.15103 -3.6198,-6.23697 -6.21094,-9.25781 l -0.80078,-0.66406 -0.52734,1.62109 c -0.36459,1.17189 -1.01563,3.61329 -1.95313,7.32422 l -0.17578,0.0195 c -1.66667,0.32553 -3.58724,0.78126 -5.76172,1.36719 0.72917,-2.81249 1.60156,-5.71614 2.61719,-8.71094 0.625,-1.88801 1.60807,-4.29686 2.94922,-7.22656 0.27343,-0.58592 0.66405,-1.38019 1.17187,-2.38282 -0.42969,0.14326 -0.80729,0.25393 -1.13281,0.33204 l -1.15234,-5.35157 c 2.68228,-0.40361 4.99999,-0.60544 6.95312,-0.60547 0.4427,3e-5 0.944,0.0261 1.50391,0.0781 1.54946,0.11722 2.43488,0.19534 2.65625,0.23437 0.82029,0.13024 1.72524,0.41019 2.71484,0.83985 2.18748,0.91148 3.28123,2.47398 3.28125,4.6875 -2e-5,0.31252 -0.0456,0.70966 -0.13672,1.1914 m -4.76562,-0.50781 c -2e-5,-0.83331 -0.5534,-1.4518 -1.66016,-1.85547 -0.32553,-0.13018 -0.85288,-0.19528 -1.58203,-0.19531 l -0.41015,0 c -0.65106,0.0261 -1.52345,0.19534 -2.61719,0.50781 l 1.11328,0.56641 c -0.37762,0.66409 -0.76824,1.4844 -1.17188,2.46094 -0.026,0.0651 -0.23438,0.62502 -0.625,1.67968 l 1.34766,-0.0391 c 1.39322,-0.039 2.5716,-0.24086 3.53516,-0.60547 1.38019,-0.54685 2.07029,-1.38669 2.07031,-2.51953"
         style="font-variant:normal;font-stretch:normal;font-family:Adventure;-inkscape-font-specification:Adventure;fill:#ffffff"
         id="path3048" />
      <path
         d="m 147.33984,203.9379 c -1e-5,-0.83331 -0.5534,-1.4518 -1.66015,-1.85547 -0.32554,-0.13018 -0.85288,-0.19528 -1.58203,-0.19531 l -0.41016,0 c -0.65105,0.0261 -1.52345,0.19534 -2.61719,0.50781 l 1.11328,0.56641 c -0.37761,0.66409 -0.76824,1.4844 -1.17187,2.46094 -0.026,0.0651 -0.23439,0.62502 -0.625,1.67968 l 1.34765,-0.0391 c 1.39322,-0.039 2.57161,-0.24086 3.53516,-0.60547 1.38019,-0.54685 2.0703,-1.38669 2.07031,-2.51953 m -3.24218,9.02344 c -2e-5,-0.84634 -0.5534,-1.46483 -1.66016,-1.85547 -0.33855,-0.13019 -0.87241,-0.1953 -1.60156,-0.19531 l -0.39063,0 c -0.0651,1e-5 -0.15626,-0.007 -0.27344,-0.0195 -0.11719,-0.026 -0.19532,-0.0391 -0.23437,-0.0391 -0.13022,2e-5 -0.3711,0.0586 -0.72266,0.17579 l -0.3125,0.97656 c -0.3125,0.62501 -0.69011,1.43881 -1.13281,2.4414 -0.0781,0.19533 -0.27995,0.75522 -0.60547,1.67969 l 1.32813,-0.0195 c 1.3802,-0.0391 2.55207,-0.24738 3.51562,-0.625 1.39322,-0.54686 2.08983,-1.38671 2.08985,-2.51953 m 4.0039,-3.10547 c 0.61196,1.14585 0.91795,1.94663 0.91797,2.40234 -2e-5,0.33856 -0.0456,0.74872 -0.13672,1.23047 -0.69012,3.52866 -2.92319,5.71616 -6.69922,6.5625 -0.15626,0.013 -1.48438,0.15626 -3.98437,0.42969 l -3.69141,0.41016 c -1.35417,0.15625 -2.63021,0.3125 -3.82812,0.46875 0.72916,-2.81249 1.60156,-5.71614 2.61718,-8.71094 0.625,-1.88801 1.60807,-4.29686 2.94922,-7.22656 0.27343,-0.58592 0.66406,-1.38019 1.17188,-2.38282 -0.4297,0.14326 -0.8073,0.25393 -1.13281,0.33204 l -1.15235,-5.35157 c 2.68229,-0.40361 4.99999,-0.60544 6.95313,-0.60547 0.44269,3e-5 0.94399,0.0261 1.5039,0.0781 1.54947,0.11722 2.43488,0.19534 2.65625,0.23437 0.8203,0.13024 1.72525,0.41019 2.71485,0.83985 2.18748,0.91148 3.28123,2.47398 3.28125,4.6875 -2e-5,0.31252 -0.0456,0.70966 -0.13672,1.1914 -0.41669,2.1745 -1.75132,3.97789 -4.00391,5.41016"
         style="font-variant:normal;font-stretch:normal;font-family:Adventure;-inkscape-font-specification:Adventure;fill:#ffffff"
         id="path3050" />
      <path
         d="m 157.92578,206.78946 c -0.10418,0.37763 -0.3711,1.26955 -0.80078,2.67579 l -1.30859,4.08203 c -0.33855,1.1198 -0.60548,2.02475 -0.80079,2.71484 1.80989,-0.10415 4.51822,-0.24087 8.125,-0.41016 l -1.48437,4.51172 -3.35938,0 c -2.29167,1e-5 -5.66406,0.36459 -10.11718,1.09375 l 0,-0.0586 c 0,-0.14322 0.27343,-1.1914 0.82031,-3.14453 0.65104,-2.29166 1.23047,-4.14061 1.73828,-5.54688 0.85937,-2.39581 1.83593,-4.81118 2.92969,-7.24609 0.16926,-0.41665 0.49478,-1.17185 0.97656,-2.26563 l 1.38672,-3.22265 c 0.36457,-0.88539 0.67056,-1.53643 0.91797,-1.95313 l 0.97656,-0.0781 0.46875,0 c 0.45572,3e-5 1.02213,-0.0455 1.69922,-0.13672 l 1.48437,-0.23438 c -0.13022,0.23441 -0.46876,1.03519 -1.01562,2.40235 l -2.1875,5.58594 c -0.0521,0.18231 -0.20183,0.59246 -0.44922,1.23046"
         style="font-variant:normal;font-stretch:normal;font-family:Adventure;-inkscape-font-specification:Adventure;fill:#ffffff"
         id="path3052" />
      <path
         d="m 185.60156,197.41446 -1.44531,4.55079 -1.79688,0 c -3.37241,2e-5 -6.00912,0.0781 -7.91015,0.23437 l 0.97656,0.56641 c -0.15626,0.33856 -0.54037,1.237 -1.15234,2.69531 -0.16928,0.37762 -0.35809,0.82033 -0.56641,1.32812 l 6.73828,-0.2539 -1.42578,4.08203 -6.64062,0.23437 c -0.48178,1.41929 -1.00913,3.22267 -1.58204,5.41016 1.80989,-0.10415 4.51822,-0.24087 8.125,-0.41016 l -1.48437,4.51172 -3.35938,0 c -2.29167,1e-5 -5.66406,0.36459 -10.11718,1.09375 l 0,-0.0586 c 0,-0.14322 0.27343,-1.1914 0.82031,-3.14453 0.65104,-2.26562 1.23047,-4.11457 1.73828,-5.54688 0.85937,-2.39581 1.83593,-4.81118 2.92969,-7.24609 0.41666,-0.91144 0.88541,-1.86196 1.40625,-2.85156 -1.10678,0.11721 -2.14193,0.2344 -3.10547,0.35156 l 1.38672,-4.6875 c 2.16145,-0.16924 4.74608,-0.33851 7.7539,-0.50781 1.79687,-0.10414 4.70051,-0.22133 8.71094,-0.35157"
         style="font-variant:normal;font-stretch:normal;font-family:Adventure;-inkscape-font-specification:Adventure;fill:#ffffff"
         id="path3054" />
    </g>
    <g
       transform="matrix(1.9729592,-0.12709947,0.12709947,1.9729592,-174.01376,-330.89721)"
       style="font-size:40px;font-style:normal;font-variant:normal;font-weight:normal;font-stretch:normal;line-height:125%;letter-spacing:0px;word-spacing:0px;fill:#ffffff;fill-opacity:1;stroke:none;font-family:Adventure;-inkscape-font-specification:Adventure"
       id="flowRoot2993">
      <path
         d="m 170.40625,366.08634 -2.87109,12.53906 c -0.0782,0.31252 -0.41671,1.75132 -1.01563,4.31641 l -1.30859,5.70312 c -0.53389,2.25261 -0.99613,4.47917 -1.38672,6.67969 l -8.94531,2.44141 c 0.63799,-2.35677 1.62106,-5.58594 2.94921,-9.6875 0.40362,-1.22395 1.06768,-3.38541 1.99219,-6.48438 0.42966,-1.44529 1.07419,-3.34633 1.9336,-5.70312 -1.65368,0.58595 -4.17972,3.75001 -7.57813,9.49218 -1.27606,2.14845 -2.51304,5.23439 -3.71094,9.25782 l -7.40234,1.79687 c 0.0521,-0.27343 0.0781,-0.69661 0.0781,-1.26953 -1e-5,-2.79947 -0.34506,-6.51041 -1.03515,-11.13281 -0.26043,-1.8229 -0.48829,-2.73436 -0.6836,-2.73438 l -2.57812,6.15235 c -1.17188,2.78646 -1.87501,5.41016 -2.10938,7.87109 l -7.40234,1.81641 c 0.85938,-3.17708 1.82943,-6.40625 2.91016,-9.6875 0.83333,-2.48697 2.06379,-5.50129 3.6914,-9.04297 0.70312,-1.56248 1.6927,-3.52212 2.96875,-5.87891 0.0781,-0.23435 0.11718,-0.42315 0.11719,-0.5664 -1e-5,-0.42967 -0.16928,-1.10675 -0.50781,-2.03125 -0.41668,-1.19789 -0.65105,-1.888 -0.70313,-2.07032 l 7.16797,-1.62109 c 0.85936,2.87763 1.61457,5.53388 2.26563,7.96875 0.93748,3.47658 1.44529,6.45184 1.52343,8.92578 2.52602,-5.2604 5.59243,-9.25779 9.19922,-11.99219 1.35414,-1.18487 2.74086,-2.16143 4.16016,-2.92968 1.0807,-0.55987 2.23955,-0.97654 3.47656,-1.25 1.61455,-0.37758 2.59762,-0.59893 2.94922,-0.66407 0.67704,-0.10413 1.29553,-0.17575 1.85547,-0.21484"
         style="fill:#ffffff"
         id="path3029" />
      <path
         d="m 181.38281,372.1215 c -0.53387,0.75523 -1.65366,2.56512 -3.35937,5.42968 l -1.40625,2.38282 3.18359,-0.0586 0.72266,0.56641 c 0.59894,-1.31509 0.89842,-3.73045 0.89843,-7.2461 -1e-5,-0.53383 -0.013,-0.8919 -0.0391,-1.07421 m -1.60156,11.26953 -4.74609,0.23437 c -0.97657,1.54949 -1.8685,3.56772 -2.67579,6.05469 l -5.91796,1.46484 c 0.16927,-0.65103 0.9375,-2.36327 2.30468,-5.13672 l 1.42578,-2.89062 c 1.34115,-2.72134 3.45052,-6.08071 6.32813,-10.07813 1.57551,-2.20049 3.1315,-4.15361 4.66797,-5.85937 0.91144,-0.026 2.2591,-0.0846 4.04297,-0.17578 l 0.13672,1.99219 c 0.0911,1.51044 0.1367,2.96226 0.13671,4.35546 -1e-5,2.74742 -0.20184,5.2995 -0.60546,7.65625 -0.14325,0.40367 -0.45575,2.10288 -0.9375,5.09766 -0.19533,1.23699 -0.39716,2.2461 -0.60547,3.02734 l -5.91797,1.44532 c 0.41665,-1.34114 1.20441,-3.73697 2.36328,-7.1875"
         style="fill:#ffffff"
         id="path3031" />
      <path
         d="m 195.15234,376.78946 -3.0664,8.33985 c 2.60415,-0.61197 4.99999,-2.03775 7.1875,-4.27735 1.75779,-1.83592 2.6367,-3.73696 2.63672,-5.70312 -2e-5,-1.99216 -0.38413,-3.11847 -1.15235,-3.37891 -0.84637,-0.31247 -1.54298,-0.46872 -2.08984,-0.46875 l -0.0586,0 c -1.4323,0.0651 -2.56511,0.22138 -3.39843,0.46875 l 1.73828,0.87891 c -0.15626,0.27346 -0.54689,1.09377 -1.17188,2.46094 -0.11719,0.32554 -0.32553,0.88543 -0.625,1.67968 m -3.28125,13.10547 -1.17187,0.3711 c -1.84896,0.2474 -3.60026,0.41016 -5.25391,0.48828 0.26042,-0.72916 0.95052,-2.74088 2.07031,-6.03516 0.54688,-1.64061 1.39323,-4.08201 2.53907,-7.32422 0.49478,-1.31508 1.29556,-3.02081 2.40234,-5.11718 -0.35157,0.22137 -0.82032,0.48179 -1.40625,0.78125 l -1.15234,-5.35157 c 2.68228,-0.40361 4.99999,-0.60544 6.95312,-0.60547 0.4427,3e-5 0.944,0.0261 1.50391,0.0781 1.54946,0.11722 2.43488,0.19534 2.65625,0.23437 0.82029,0.13024 1.72524,0.41019 2.71484,0.83985 2.18748,0.91148 3.28123,2.47398 3.28125,4.6875 -2e-5,0.41669 -0.0456,0.81382 -0.13672,1.1914 -0.88543,7.60419 -5.88543,12.85809 -15,15.76172"
         style="fill:#ffffff"
         id="path3033" />
      <path
         d="m 209.91797,367.62931 5.74219,-1.28906 c 1.1328,4.51825 1.9466,8.75002 2.4414,12.69531 0.0651,2e-5 0.29947,-0.48175 0.70313,-1.44531 l 0.625,-1.52344 c 0.67706,-1.58852 2.16795,-4.46612 4.47265,-8.63281 l 0.64453,-0.0586 c 1.17186,-0.1432 2.52602,-0.26039 4.0625,-0.35156 -1.39325,2.53909 -2.8646,5.55341 -4.41406,9.04297 -0.54689,1.26304 -1.36069,3.6784 -2.4414,7.24609 -0.2995,0.95054 -0.86591,2.8646 -1.69922,5.74219 l -5.9375,1.44531 c 0.0521,-0.22135 0.0781,-0.55989 0.0781,-1.01562 -1e-5,-2.23958 -0.27996,-5.20832 -0.83984,-8.90625 -0.20834,-1.45832 -0.39064,-2.18748 -0.54688,-2.1875 l -2.05078,4.92187 c -0.9375,2.22658 -1.50391,4.32293 -1.69922,6.28906 l -5.91797,1.46485 c 0.69011,-2.55208 1.46485,-5.13671 2.32422,-7.75391 0.66406,-1.99217 1.64714,-4.40753 2.94922,-7.24609 0.57291,-1.24998 1.36718,-2.81248 2.38281,-4.6875 0.0651,-0.19529 0.0976,-0.35154 0.0977,-0.46875 -1e-5,-0.33852 -0.13673,-0.87888 -0.41016,-1.6211 -0.33854,-0.95049 -0.52735,-1.50387 -0.5664,-1.66015"
         style="fill:#ffffff"
         id="path3035" />
      <path
         d="m 242.08594,367.10196 -1.44532,4.55079 -1.79687,0 c -3.37241,2e-5 -6.00913,0.0781 -7.91016,0.23437 l 0.97657,0.56641 c -0.15627,0.33856 -0.54038,1.237 -1.15235,2.69531 -0.16928,0.37762 -0.35808,0.82033 -0.5664,1.32812 l 6.73828,-0.2539 -1.42578,4.08203 -6.64063,0.23437 c -0.48178,1.41929 -1.00912,3.22267 -1.58203,5.41016 1.80989,-0.10415 4.51822,-0.24087 8.125,-0.41016 l -1.48438,4.51172 -3.35937,0 c -2.29167,1e-5 -5.66407,0.36459 -10.11719,1.09375 l 0,-0.0586 c 0,-0.14322 0.27344,-1.1914 0.82031,-3.14453 0.65104,-2.26562 1.23047,-4.11457 1.73829,-5.54688 0.85937,-2.39581 1.83593,-4.81118 2.92968,-7.24609 0.41666,-0.91144 0.88541,-1.86196 1.40625,-2.85156 -1.10677,0.11721 -2.14193,0.2344 -3.10547,0.35156 l 1.38672,-4.6875 c 2.16145,-0.16924 4.74609,-0.33851 7.75391,-0.50781 1.79686,-0.10414 4.7005,-0.22133 8.71094,-0.35157"
         style="fill:#ffffff"
         id="path3037" />
      <path
         d="m 249.41016,371.53556 c -0.85939,0.0261 -1.59507,0.10419 -2.20704,0.23437 -1.53646,0.36461 -2.63021,0.98961 -3.28125,1.875 -0.22136,0.31253 -0.33204,0.63805 -0.33203,0.97657 -1e-5,0.57293 0.29947,1.28908 0.89844,2.14843 0.79426,1.14586 1.24999,1.84898 1.36719,2.10938 0.72915,1.70574 1.09374,3.03387 1.09375,3.98437 l 0,0.39063 c -0.20835,2.35678 -1.56251,4.36199 -4.0625,6.01562 -1.35418,0.91147 -3.54167,1.7448 -6.5625,2.5 l -1.09375,-5.83984 c 1.14583,-0.14322 2.17447,-0.37108 3.08594,-0.68359 2.16145,-0.74218 3.24218,-1.73176 3.24218,-2.96875 l 0,-0.19532 c 0,-0.62498 -0.20183,-1.32811 -0.60547,-2.10937 -0.22136,-0.32551 -0.60547,-0.92446 -1.15234,-1.79688 -0.97657,-1.54946 -1.46485,-2.8906 -1.46484,-4.02343 -1e-5,-2.42185 0.90494,-4.16664 2.71484,-5.23438 1.39322,-0.80726 3.48957,-1.56247 6.28906,-2.26562 l 2.07032,4.88281"
         style="fill:#ffffff"
         id="path3039" />
      <path
         d="m 261.51953,371.53556 c -0.85939,0.0261 -1.59506,0.10419 -2.20703,0.23437 -1.53647,0.36461 -2.63022,0.98961 -3.28125,1.875 -0.22136,0.31253 -0.33204,0.63805 -0.33203,0.97657 -1e-5,0.57293 0.29947,1.28908 0.89844,2.14843 0.79426,1.14586 1.24998,1.84898 1.36718,2.10938 0.72916,1.70574 1.09374,3.03387 1.09375,3.98437 l 0,0.39063 c -0.20834,2.35678 -1.56251,4.36199 -4.0625,6.01562 -1.35417,0.91147 -3.54167,1.7448 -6.5625,2.5 l -1.09375,-5.83984 c 1.14584,-0.14322 2.17448,-0.37108 3.08594,-0.68359 2.16145,-0.74218 3.24218,-1.73176 3.24219,-2.96875 l 0,-0.19532 c -1e-5,-0.62498 -0.20183,-1.32811 -0.60547,-2.10937 -0.22136,-0.32551 -0.60547,-0.92446 -1.15234,-1.79688 -0.97657,-1.54946 -1.46485,-2.8906 -1.46485,-4.02343 0,-2.42185 0.90495,-4.16664 2.71485,-5.23438 1.39322,-0.80726 3.48957,-1.56247 6.28906,-2.26562 l 2.07031,4.88281"
         style="fill:#ffffff"
         id="path3041" />
    </g>
    <flowRoot
       xml:space="preserve"
       id="flowRoot3001"
       style="font-size:40px;font-style:normal;font-weight:normal;line-height:125%;letter-spacing:0px;word-spacing:0px;fill:#000000;fill-opacity:1;stroke:none;font-family:Sans"><flowRegion
         id="flowRegion3003"><rect
           id="rect3005"
           width="789.93933"
           height="282.84271"
           x="60.609154"
           y="442.23004" /></flowRegion><flowPara
         id="flowPara3007"
         style="font-size:20px;font-weight:bold" /></flowRoot>  </g>
</svg>
